<svg height="120" version="1.1" width="330" xmlns="http://www.w3.org/2000/svg" xmlns:xlink="http://www.w3.org/1999/xlink" style="overflow: hidden; position: relative;" viewBox="0 0 441.18 158.85" preserveAspectRatio="xMidYMid meet"><desc style="-webkit-tap-highlight-color: rgba(0, 0, 0, 0);">Created with Raphaël 2.1.2</desc><defs style="-webkit-tap-highlight-color: rgba(0, 0, 0, 0);"></defs><path fill="#787d84" stroke="#000000" d="M315.06,498.33C315.12,498.99,314.99,499.14,315.59,499.33L317.59,500.03C319.59,500.71,321.59,501.33,323.59,501.85999999999996A102.6,102.6,0,0,0,336.28,504.35999999999996C340.55999999999995,504.92999999999995,344.85999999999996,505.27,349.17999999999995,505.46999999999997S357.8299999999999,505.72999999999996,362.17999999999995,505.74999999999994S370.60999999999996,505.74999999999994,374.81999999999994,505.74999999999994H376.5799999999999V494.65L352.4699999999999,494.73999999999995L328.4699999999999,494.8299999999999L314.8399999999999,494.87999999999994C314.8399999999999,495.35999999999996,314.9299999999999,495.87999999999994,314.9799999999999,496.3299999999999ZM375.42,495.7V504.75C359.24,504.64,342.85,505.31,326.96000000000004,501.67Q323.67,500.91,320.45000000000005,499.91Q318.73,499.37,317.03000000000003,498.76000000000005A3.72,3.72,0,0,1,316.49,498.56000000000006C316.01,498.2900000000001,316.12,498.2800000000001,316.07,497.71000000000004L315.90999999999997,495.93000000000006Z" transform="matrix(1,0,0,1,-165.58,-476.64)" style="-webkit-tap-highlight-color: rgba(0, 0, 0, 0);"></path><path fill="#787d84" stroke="#000000" d="M360.74,606.24C356.64,606.24,352.53000000000003,606.33,348.43,606.54S340.12,607.0799999999999,335.99,607.65A101.76,101.76,0,0,0,323.29,610.18Q320.37,610.9699999999999,317.51000000000005,611.9599999999999A20.19,20.19,0,0,0,315.51000000000005,612.68C315.00000000000006,612.93,315.11000000000007,613.0699999999999,315.05000000000007,613.68L314.87000000000006,615.68L314.7300000000001,617.17L338.7300000000001,617.26L362.7300000000001,617.35L376.44000000000005,617.4V606.2L373.44000000000005,606.2C369.26,606.23,365,606.21,360.74,606.24ZM375.42,616.3100000000001L315.90000000000003,616.08L316.03000000000003,614.6500000000001A4.25,4.25,0,0,1,316.1,613.94C316.27000000000004,613.36,316.1,613.73,316.49,613.45A12.75,12.75,0,0,1,319.55,612.3900000000001Q322.5,611.3900000000001,325.55,610.69A102.45,102.45,0,0,1,337.39,608.5300000000001A202.11,202.11,0,0,1,361.59,607.2900000000001C366.21,607.2900000000001,370.83,607.2900000000001,375.46,607.2900000000001Z" transform="matrix(1,0,0,1,-165.58,-476.64)" style="-webkit-tap-highlight-color: rgba(0, 0, 0, 0);"></path><path fill="#787d84" stroke="#000000" d="M533.54,613.52A29.84,29.84,0,0,0,535.54,610.64L535.9399999999999,609.99H532.9399999999999C534.79,605.88,542.9899999999999,585.99,542.9899999999999,555.99S534.8599999999999,506.22,532.9899999999999,501.99H533.68L535.91,501.91A31.12,31.12,0,0,0,533.74,498.71000000000004A35.72,35.72,0,0,1,531.2,495.71000000000004H531.2L530.2,494.29H530.2L529.0300000000001,492.69L525.6800000000001,488.11A75.75,75.75,0,0,1,515.9300000000001,485.91A17.14,17.14,0,0,0,511.46000000000004,485.21000000000004L503.27000000000004,485.21000000000004C495.27000000000004,485.21000000000004,497.35,485.21000000000004,489.38000000000005,485.14000000000004C486.89000000000004,485.14000000000004,484.38000000000005,485.24000000000007,481.93000000000006,485.14000000000004C478.55000000000007,485.07000000000005,476.00000000000006,485.94000000000005,473.0300000000001,486.48C469.62000000000006,487.1,456.2700000000001,487.55,452.80000000000007,487.55H438.25C438.02,487.55,437.25,487.69,437.03,487.55S436.96999999999997,487.42,436.89,487.28000000000003A9.67,9.67,0,0,1,436.28999999999996,485.28000000000003L435.42999999999995,482.39000000000004C435.06999999999994,481.18000000000006,434.78999999999996,479.91,434.30999999999995,478.74000000000007A3,3,0,0,0,431.74999999999994,476.74000000000007A13.38,13.38,0,0,0,428.23999999999995,476.83000000000004C426.96999999999997,477.12000000000006,426.84,478.28000000000003,426.84,479.39000000000004C426.84,480.77000000000004,426.84,482.16,426.84,483.54L426.84,487.65000000000003L402.13,487.79L378.05,487.95000000000005Q365.59000000000003,488.03000000000003,353.13,488.08000000000004L340.4,488.08000000000004H335C333.88,488.08000000000004,332.76,488.08000000000004,331.64,488.08000000000004A63.21,63.21,0,0,1,324.28,486.93000000000006A57.81,57.81,0,0,0,314.09999999999997,485.76000000000005H277.72A113.08,113.08,0,0,0,263.72,486.97C261.06,487.3,258.45000000000005,487.81,255.81000000000003,488.24C254.05000000000004,488.53000000000003,252.22000000000003,488.55,250.44000000000003,488.72C246.89000000000001,489.05,243.36,489.46000000000004,239.81000000000003,489.72C238.28000000000003,489.85,236.72000000000003,489.87,235.16000000000003,489.93L234.79000000000002,491.08H234.79000000000002L233.31000000000003,495.60999999999996C233.19000000000003,496.05999999999995,233.04000000000002,496.50999999999993,232.92000000000004,496.87999999999994L231.12000000000003,503.3299999999999L232.72000000000003,503.4099999999999L233.09000000000003,503.4099999999999H233.70000000000005C233.07000000000005,505.9199999999999,230.70000000000005,518.1099999999999,230.70000000000005,557.2799999999999C230.70000000000005,585.3399999999998,233.70000000000005,605.0799999999998,234.28000000000006,608.4999999999999H234.18000000000006L233.82000000000005,608.4999999999999V608.4999999999999L231.12000000000006,608.4199999999998L232.72000000000006,614.4199999999998H232.72000000000006L232.96000000000006,615.1599999999999C233.10000000000005,615.5499999999998,233.30000000000007,616.1599999999999,233.47000000000006,616.7199999999998L234.80000000000007,620.7899999999998H234.80000000000007L235.15000000000006,621.8599999999999C238.52000000000007,622.0099999999999,241.89000000000007,622.3299999999999,245.24000000000007,622.68C247.01000000000008,622.8599999999999,248.78000000000006,623.04,250.56000000000006,623.2099999999999S254.20000000000005,623.4,255.98000000000005,623.7099999999999A182.71,182.71,0,0,0,274.49000000000007,626.06C277.49000000000007,626.27,280.55000000000007,626.16,283.57000000000005,626.16H314.1A59.41,59.41,0,0,0,324.65,625A52.06,52.06,0,0,1,331.90999999999997,623.9C332.99999999999994,623.9,334.09,623.9,335.17999999999995,623.9L347.55999999999995,623.9Q359.55999999999995,623.9,371.65999999999997,624.01L396.73999999999995,624.17L420.5799999999999,624.3199999999999L426.86999999999995,624.3199999999999C426.86999999999995,627.1999999999999,426.73999999999995,630.0899999999999,426.79999999999995,632.9699999999999C426.79999999999995,634.1899999999999,427.19999999999993,635.1299999999999,428.53999999999996,635.29A12.08,12.08,0,0,0,432.18999999999994,635.29A3.38,3.38,0,0,0,434.4699999999999,632.73C434.9299999999999,631.29,435.3399999999999,629.83,435.7699999999999,628.37L436.6099999999999,625.55C436.6799999999999,625.31,436.7799999999999,624.55,436.9899999999999,624.38S438.4999999999999,624.38,438.9899999999999,624.38H450.32999999999987C453.1299999999999,624.38,467.7399999999999,624.5,470.51999999999987,624.91C474.82999999999987,625.55,477.0099999999999,626.85,481.2499999999999,626.91C483.33999999999986,626.91,485.4399999999999,626.91,487.52999999999986,626.91C495.67999999999984,626.91,493.82999999999987,626.91,501.98999999999984,626.8399999999999L511.11999999999983,626.8399999999999A17.93,17.93,0,0,0,515.7699999999999,626.1899999999999A83.07,83.07,0,0,1,525.7699999999999,623.93L526.6099999999999,622.78L530.2699999999999,617.78H530.2699999999999L531.0699999999998,616.78ZM542,556C542,587,533.17,607.12,531.85,610H463.4C464.87,603.67,465.96999999999997,597.26,466.89,590.82S468.51,578,469,571.61Q469.42,565.95,469.63,560.27H469.77V551.73H469.63C469.39,545.04,468.9,538.36,468.21,531.73Q467.21,522.12,465.54999999999995,512.58C464.92999999999995,509.04,464.22999999999996,505.52000000000004,463.41999999999996,502.03000000000003H531.89C533.28,505.07,542,525.24,542,556ZM419.18,601.9A4.15,4.15,0,0,0,420.02,603.9C376.09999999999997,597.05,323.34999999999997,603.48,314.02,604.72C315.78,602.27,314.78999999999996,599.21,314.33,596.52Q313.58,592.17,313.01,587.8C312.23,581.9599999999999,311.65,576.0999999999999,311.28999999999996,570.2199999999999C311.09,566.8799999999999,310.97999999999996,563.55,310.93999999999994,560.2199999999999H311.09999999999997A74.38,74.38,0,0,1,311.09999999999997,551.68H310.93999999999994C311.0199999999999,545.7399999999999,311.34999999999997,539.81,311.93999999999994,533.89S313.23999999999995,522.18,314.2099999999999,516.37C314.69999999999993,513.43,315.9799999999999,509.89,314.0999999999999,507.19C323.6699999999999,508.46,333.2899999999999,509.34,342.9199999999999,510A426.74,426.74,0,0,0,391.6599999999999,510.74A263.62,263.62,0,0,0,420,508.06A4.91,4.91,0,0,0,419.28,512.06C419.53999999999996,513.63,419.83,515.1899999999999,420.07,516.75Q420.81,521.49,421.36,526.26Q422.48,535.88,422.90000000000003,545.5699999999999Q423.32000000000005,554.93,422.99,564.28Q422.65000000000003,573.91,421.62,583.49Q421.12,588.15,420.45,592.79Q420.11,595.12,419.71999999999997,597.4399999999999A15.74,15.74,0,0,0,419.18,601.94ZM275.18,551.6999999999999H275.09000000000003C275.20000000000005,537.28,276.26000000000005,522.53,279.86,508.5199999999999C280.23,507.06999999999994,280.64,505.62999999999994,281.09000000000003,504.19999999999993A6.26,6.26,0,0,1,283.02000000000004,500.85999999999996C284.27000000000004,499.92999999999995,285.68000000000006,500.18999999999994,287.09000000000003,500.52Q289.85,501.19,292.63000000000005,501.79999999999995C295.88000000000005,502.52,299.15000000000003,503.19999999999993,302.40000000000003,503.90999999999997C303.97,504.26,305.55,504.60999999999996,307.11,504.98999999999995A15.35,15.35,0,0,1,311.69,506.38999999999993C314.39,508.0799999999999,313.99,510.99999999999994,313.5,513.6899999999999Q312.66,518.3599999999999,312.03,523.0699999999999C311.03,530.3499999999999,310.33,537.67,310.03,545.01A244.48,244.48,0,0,0,312.14,589.49Q312.78999999999996,594.14,313.62,598.77C314.11,601.48,314.11,604.38,311.26,605.77A22.06,22.06,0,0,1,306.67,607.03C305.11,607.4,303.54,607.75,301.96000000000004,608.1C298.63000000000005,608.83,295.29,609.52,291.96000000000004,610.26Q289.14000000000004,610.89,286.33000000000004,611.5699999999999C282.89000000000004,612.41,281.63000000000005,609.52,280.80000000000007,606.77A100.07,100.07,0,0,1,278.4200000000001,596.97A182.69,182.69,0,0,1,275.5800000000001,573.87Q275.1400000000001,567.05,275.0900000000001,560.21H275.18000000000006Q275.09,556,275.22,551.74ZM420.33000000000004,599.78Q420.70000000000005,597.72,421.02000000000004,595.66C421.90000000000003,590.11,422.57000000000005,584.53,423.07000000000005,578.9399999999999Q423.91,569.6099999999999,424.07000000000005,560.2399999999999H424.07000000000005Q424.13000000000005,555.9699999999999,424.07000000000005,551.6999999999999H424.07000000000005Q423.84000000000003,540.6999999999999,422.72,529.79Q422.16,524.29,421.36,518.79Q420.97,516.16,420.53000000000003,513.55C420.3,512.2299999999999,419.81,510.73999999999995,420.31,509.41999999999996C421.31,506.87999999999994,425.16,506.24999999999994,427.39,505.58C430.97999999999996,504.51,434.63,503.64,438.28999999999996,502.84C441.46999999999997,502.14,444.65999999999997,501.47999999999996,447.84,500.73999999999995H447.84L447.84,500.73999999999995L448.84,500.50999999999993C450.60999999999996,500.0899999999999,452.38,499.6499999999999,454.13,499.1599999999999Q455.42,498.7999999999999,456.69,498.4099999999999A5,5,0,0,1,459.09,497.9899999999999C461.90999999999997,498.4999999999999,462.16999999999996,501.7599999999999,462.66999999999996,503.9899999999999C463.27,506.6999999999999,463.79999999999995,509.4299999999999,464.28999999999996,512.1699999999998C465.46,518.7999999999998,466.36999999999995,525.4699999999998,467.06999999999994,532.1699999999998C467.8299999999999,539.4299999999998,468.3299999999999,546.7199999999998,468.50999999999993,554.0199999999999A190.09,190.09,0,0,1,467.4099999999999,576.1699999999998Q466.4599999999999,586.3999999999999,464.8099999999999,596.5499999999998C464.33999999999986,599.4399999999998,463.8099999999999,602.3099999999998,463.2299999999999,605.1799999999998Q462.8299999999999,607.1799999999998,462.3799999999999,609.1099999999998A8.4,8.4,0,0,1,461.20999999999987,612.5599999999998A3.27,3.27,0,0,1,457.78999999999985,613.7999999999998C454.51999999999987,612.7399999999999,451.1899999999998,611.8999999999999,447.83999999999986,611.1199999999999L447.83999999999986,611.1199999999999L447.83999999999986,611.1199999999999C440.1899999999999,609.3499999999999,432.4399999999999,607.9799999999999,424.96999999999986,605.5199999999999C423.26999999999987,604.9599999999999,421.01999999999987,604.3199999999998,420.32999999999987,602.4499999999998A5,5,0,0,1,420.37,599.82ZM473.33000000000004,487.33C476.84000000000003,486.45,477.86,486.08,480.96000000000004,486.08C490.45000000000005,486.08,489.96000000000004,486.14,499.42,486.16999999999996L507.03000000000003,486.16999999999996C509.49,486.16999999999996,512.08,485.89,514.49,486.44999999999993S519.09,487.87999999999994,521.44,488.44999999999993C521.97,488.56999999999994,522.5,488.67999999999995,523.0400000000001,488.73999999999995A6.22,6.22,0,0,1,524.8800000000001,488.92999999999995C525.0700000000002,489.04999999999995,525.2500000000001,489.43999999999994,525.3800000000001,489.60999999999996L530.2500000000001,496.27H530.2500000000001C531.4200000000001,497.88,532.8300000000002,499.27,533.9600000000002,500.93H463.15A4.83,4.83,0,0,0,459.15,496.93ZM471.23,487.5L457.08,497C455.51,497.35,454.96999999999997,497.94,453.40999999999997,498.36C452.09999999999997,498.72,450.78,499.04,449.40999999999997,499.36L461.07,488.2C465.59,488,469.79,487.77,471.31,487.55ZM427.63,478.65C427.75,477.41999999999996,428.63,477.52,429.71999999999997,477.52C430.34,477.52,430.97999999999996,477.52,431.59999999999997,477.52C432.77,477.60999999999996,433.28999999999996,478.52,433.59999999999997,479.52S434.2,481.52,434.49999999999994,482.52C435.38999999999993,485.52,436.49999999999994,488.52,437.19999999999993,491.52C437.5899999999999,493.15999999999997,436.19999999999993,493.76,434.79999999999995,493.59999999999997C433.25999999999993,493.41999999999996,431.69999999999993,492.93999999999994,430.18999999999994,492.59999999999997S427.73999999999995,491.59999999999997,427.7099999999999,490.07S427.7099999999999,487.07,427.7099999999999,485.57L427.6599999999999,479.96A14,14,0,0,1,427.71,478.69ZM440.63,494.65C441.09,494.65,443.95,494.48999999999995,443.54,495.51C443.22,496.3,441.36,496.78,440.67,497.03A50.36,50.36,0,0,1,435,498.6Q431.33,499.44,427.64,500.19A221.54,221.54,0,0,1,399.36,504.05C393.82,504.44,388.27000000000004,504.62,382.71000000000004,504.67L383.39000000000004,495.47C403.43,495.47,420.61,494.73,440.68,494.73ZM380,489C395.61,488.9,411.13,488.78,426.88,488.71C426.88,489.84999999999997,426.68,491.21,427.38,492.2C428.23,493.39,429.73,493.56,431.05,493.84L382.35,494.46Q381.92,500.12,381.51000000000005,505.78C388.59000000000003,505.7,395.66,505.55999999999995,402.73,505.15A140,140,0,0,0,424.18,502.23999999999995C428.88,501.23999999999995,433.55,500.05999999999995,438.23,498.94999999999993A21,21,0,0,0,442.87,497.36999999999995A3.27,3.27,0,0,0,444.56,495.92999999999995C444.99,494.85999999999996,444.1,494.15,443.15,493.92999999999995A22.77,22.77,0,0,0,437.59999999999997,493.7699999999999C438.83,492.2999999999999,437.68999999999994,490.24999999999994,437.21999999999997,488.67999999999995L447.84,488.67999999999995C449.52,488.67999999999995,454.44,488.53999999999996,459.39,488.34L447.28,499.94C444.44,500.59,441.58,501.19,438.72999999999996,501.81C435.46999999999997,502.52,432.21,503.27,428.99999999999994,504.17C427.25999999999993,504.66,425.5299999999999,505.17,423.8299999999999,505.76C423.0899999999999,506.01,422.4099999999999,506.36,421.69999999999993,506.65999999999997A12.63,12.63,0,0,1,418.69999999999993,507.21999999999997Q416.69999999999993,507.51,414.7899999999999,507.77A297.6,297.6,0,0,1,379.4699999999999,510.12ZM319.53,487.33C323.71999999999997,487.99,327.98999999999995,489.18,332.26,489.18C348.09999999999997,489.18,363.55,489.1,378.9,489L378.41999999999996,510.09A474,474,0,0,1,323.41999999999996,507.29999999999995Q319.78999999999996,506.90999999999997,316.15999999999997,506.46A14.38,14.38,0,0,1,312.80999999999995,506.02A23.8,23.8,0,0,0,310.68999999999994,504.9C309.85999999999996,504.64,308.99999999999994,504.46,308.1499999999999,504.25S307.24999999999994,504.19,307.1499999999999,503.47S306.7099999999999,501.28000000000003,306.5499999999999,500.47C305.7199999999999,496.24,304.6099999999999,491.47,303.5999999999999,486.85C308.35,486.81,315,486.58,319.57,487.3ZM302.53,486.84L306.10999999999996,503.76C303.40999999999997,503.14,300.69999999999993,502.55,297.98999999999995,501.96999999999997L294.7699999999999,486.84ZM232.79999999999995,502.65999999999997H232.58999999999995A21.6,21.6,0,0,0,233.40999999999994,498.83H233.40999999999994L234.48999999999995,495.51L235.26999999999995,493.14A8.74,8.74,0,0,1,235.85999999999996,491.34999999999997C235.85999999999996,491.29999999999995,235.85999999999996,491.11999999999995,235.94999999999996,491.08A5.18,5.18,0,0,1,237.10999999999996,491.01L238.45999999999995,490.92C240.19999999999996,490.79,241.93999999999994,490.63,243.67999999999995,490.46000000000004C247.29999999999995,490.1,250.90999999999994,489.70000000000005,254.52999999999994,489.46000000000004C260.97999999999996,489.02000000000004,267.31999999999994,487.55,273.75999999999993,486.98C277.49999999999994,486.65000000000003,281.2899999999999,486.84000000000003,285.0399999999999,486.84000000000003H293.6099999999999L296.7799999999999,501.72L292.3499999999999,500.72A50.37,50.37,0,0,0,285.4999999999999,499.20000000000005A4.62,4.62,0,0,0,282.2499999999999,500.13000000000005A5.23,5.23,0,0,0,281.0999999999999,501.40000000000003C280.9299999999999,501.66,280.6799999999999,502.50000000000006,280.4599999999999,502.63000000000005S279.62999999999994,502.63000000000005,279.4099999999999,502.63000000000005H232.88ZM231.66999999999996,557.36C231.66999999999996,516.94,234.31999999999996,505.14,234.74999999999997,503.49H280.2A118.82,118.82,0,0,0,276,523.51C275.07,530.51,274.5,537.51,274.24,544.51S273.98,558.3199999999999,274.16,565.21S274.81,578.9000000000001,275.64000000000004,585.7A132.14,132.14,0,0,0,279.48,605.96C279.73,606.84,280,607.71,280.28000000000003,608.58H235.35C234.88,605.72,231.75,585.84,231.75,557.33ZM283.44999999999993,625.23C279.5799999999999,625.23,278.6599999999999,625.4300000000001,274.79999999999995,625.1700000000001C271.50999999999993,624.95,268.22999999999996,624.44,264.96999999999997,623.96C261.52,623.46,258.04999999999995,622.84,254.56999999999996,622.61S247.56999999999996,621.99,244.09999999999997,621.61C242.28999999999996,621.4300000000001,240.48999999999995,621.26,238.67999999999998,621.12L237.51999999999998,621.04C237.23999999999998,621.04,236.17,621.12,235.96999999999997,620.9499999999999S235.96999999999997,620.7599999999999,235.88999999999996,620.6999999999999A7.76,7.76,0,0,1,235.32999999999996,618.9999999999999L234.51999999999995,616.5199999999999L233.43999999999994,613.2299999999999H233.43999999999994A21.33,21.33,0,0,0,232.61999999999995,609.3699999999999H278.37999999999994A10.83,10.83,0,0,1,280.19999999999993,609.3699999999999C280.2799999999999,609.3699999999999,280.43999999999994,609.3699999999999,280.5199999999999,609.3699999999999S281.00999999999993,610.3699999999999,281.1599999999999,610.5999999999999A4.77,4.77,0,0,0,283.8999999999999,612.67C286.0799999999999,613.24,288.6699999999999,612.13,290.7899999999999,611.67S294.7899999999999,610.79,296.7899999999999,610.36L292.7399999999999,625.22ZM293.8499999999999,625.23L297.9699999999999,610.1C300.1599999999999,609.63,302.3499999999999,609.1700000000001,304.5299999999999,608.6700000000001L306.1099999999999,608.3100000000001L301.5299999999999,625.23ZM332.2199999999999,622.89C327.94999999999993,622.89,323.68999999999994,624.08,319.4899999999999,624.74C314.9099999999999,625.46,307.2599999999999,625.23,302.6399999999999,625.23C304.1099999999999,620.23,305.0599999999999,616.97,306.1799999999999,612.9200000000001A29.58,29.58,0,0,0,306.8999999999999,609.6800000000001A6.18,6.18,0,0,1,307.30999999999995,608.0600000000001C307.5899999999999,607.71,309.05999999999995,607.6,309.53,607.48A9.74,9.74,0,0,0,311.91999999999996,606.66A3.59,3.59,0,0,1,313.22999999999996,606.03L314.9,605.81Q318.09999999999997,605.39,321.32,605.04Q332.32,603.8,343.46,603.04C355.08,602.26,366.72999999999996,601.87,378.37,601.98L378.84000000000003,623.04C363.59,622.94,348.14,622.86,332.3,622.86ZM436.3399999999999,623.25L433.55999999999995,632.56C433.22999999999996,633.66,432.62999999999994,634.51,431.41999999999996,634.56C430.66999999999996,634.56,429.90999999999997,634.56,429.15999999999997,634.56C428.23999999999995,634.56,427.68999999999994,634.4399999999999,427.59,633.4399999999999A12.51,12.51,0,0,1,427.59,632.17L427.67999999999995,622.4699999999999C427.67999999999995,620.9599999999999,428.00999999999993,619.8999999999999,429.67999999999995,619.4699999999999C431.15,619.1099999999999,432.67999999999995,618.8399999999999,434.13999999999993,618.4699999999999A6.89,6.89,0,0,1,435.4099999999999,618.2399999999999A1.75,1.75,0,0,1,437.1899999999999,620.2399999999999C437.11,621.27,436.71,622.26,436.42,623.23ZM413.2399999999999,616.96C403.2399999999999,616.76,393.2399999999999,616.5600000000001,383.2899999999999,616.5600000000001L382.6099999999999,607.36A241.42,241.42,0,0,1,432.2799999999999,612.84C435.49999999999994,613.5500000000001,438.9299999999999,614.07,441.9599999999999,615.44C442.3299999999999,615.61,443.7699999999999,616.1500000000001,443.56999999999994,616.7600000000001C443.31999999999994,617.5400000000001,440.72999999999996,617.3000000000001,440.19999999999993,617.3000000000001C431.29,617.29,422.3,617.11,413.32,616.93ZM454.1699999999999,623.4300000000001L437.1699999999999,623.4300000000001C437.63999999999993,621.86,438.7899999999999,619.7800000000001,437.4299999999999,618.34A36.33,36.33,0,0,0,442.4899999999999,618.2800000000001C443.2499999999999,618.1800000000001,444.1799999999999,617.9800000000001,444.4899999999999,617.2A1.66,1.66,0,0,0,443.6599999999999,615.2A13.64,13.64,0,0,0,439.4899999999999,613.46C435.5499999999999,612.34,431.4899999999999,611.46,427.4899999999999,610.59A145.34,145.34,0,0,0,404,607Q398.82,606.68,393.63,606.52C389.63,606.39,385.56,606.34,381.52,606.29Q381.93,611.9499999999999,382.35999999999996,617.61L431.42999999999995,618.23C430.06999999999994,618.52,428.42999999999995,618.64,427.42999999999995,619.8000000000001C426.60999999999996,620.8000000000001,426.81999999999994,622.1600000000001,426.79999999999995,623.36C411.05999999999995,623.29,395.55999999999995,623.17,379.9599999999999,623.07L379.56,602A308.29,308.29,0,0,1,411,603.87Q414.85,604.3100000000001,418.69,604.87A14.33,14.33,0,0,1,421.8,605.43C422.23,605.5999999999999,422.63,605.8399999999999,423.07,606.01C424.67,606.64,426.34,607.12,427.99,607.59C434.35,609.44,440.87,610.64,447.32,612.11H447.32L459.14,623.4300000000001ZM460.7099999999999,623.5100000000001L449.38999999999993,612.6700000000001C450.4799999999999,612.9300000000001,451.56999999999994,613.21,452.6599999999999,613.5000000000001C454.4399999999999,613.9800000000001,455.19999999999993,614.6500000000001,456.9999999999999,615.0400000000001L468.9999999999999,623.7600000000001C468.36,623.63,464.43,623.54,460.79,623.48ZM521.9799999999999,623.4300000000001C520.2899999999998,623.7700000000001,518.6499999999999,624.32,516.9799999999999,624.82A15.8,15.8,0,0,1,512.5399999999998,625.82C499.05999999999983,625.82,495.58999999999986,625.9300000000001,482.11999999999983,625.9300000000001C477.66999999999985,625.9300000000001,475.4399999999998,624.69,471.11999999999983,623.9300000000001L459.11999999999983,615.0600000000001A4.83,4.83,0,0,0,463.11999999999983,611.0600000000001H534C532.67,612.99,531.05,614.6800000000001,529.67,616.57L526.24,621.2600000000001A8.83,8.83,0,0,1,525.05,622.8900000000001C524.46,623.39,522.91,623.23,522.06,623.4Z" transform="matrix(1,0,0,1,-165.58,-476.64)" style="-webkit-tap-highlight-color: rgba(0, 0, 0, 0);"></path><path fill="#ffffff" stroke="#000000" d="M420.44,592.8Q421.12,588.16,421.61,583.5Q422.61,573.92,422.98,564.29Q423.31,554.93,422.89000000000004,545.5799999999999Q422.46000000000004,535.9,421.35,526.27Q420.8,521.5,420.06,516.76C419.82,515.1899999999999,419.53000000000003,513.63,419.27,512.0699999999999A4.91,4.91,0,0,1,419.99,508.06999999999994A263.62,263.62,0,0,1,391.58,510.80999999999995A426.74,426.74,0,0,1,342.84,510.06999999999994C333.21,509.4099999999999,323.59,508.53999999999996,314.02,507.25999999999993C315.9,509.9599999999999,314.62,513.4999999999999,314.13,516.4399999999999Q312.69,525.15,311.86,533.9599999999999C311.31,539.8799999999999,310.98,545.81,310.86,551.7499999999999H311.02000000000004A74.38,74.38,0,0,0,311.02000000000004,560.2899999999998H310.86C310.86,563.6299999999999,311.01,566.9699999999998,311.21000000000004,570.2899999999998C311.56000000000006,576.1699999999998,312.15000000000003,582.0399999999998,312.93000000000006,587.8699999999999Q313.51000000000005,592.2399999999999,314.25000000000006,596.5899999999999C314.71000000000004,599.28,315.71000000000004,602.3399999999999,313.94000000000005,604.79C323.28000000000003,603.55,376.0300000000001,597.11,419.94000000000005,603.9699999999999A4.15,4.15,0,0,1,419.1000000000001,601.9699999999999A15.74,15.74,0,0,1,419.6400000000001,597.4899999999999Q420.1,595.13,420.44,592.8Z" transform="matrix(1,0,0,1,-175.58,-476.64)" style="-webkit-tap-highlight-color: rgba(0, 0, 0, 0);"></path><path fill="#ffffff" stroke="#000000" d="M242.39,608.55H280.28C280,607.68,279.72999999999996,606.81,279.47999999999996,605.93A132.14,132.14,0,0,1,275.64,585.67C274.81,578.87,274.34999999999997,572.03,274.15999999999997,565.18S273.97999999999996,551.37,274.23999999999995,544.4799999999999S275.06999999999994,530.4799999999999,275.99999999999994,523.4799999999999A118.82,118.82,0,0,1,280.2799999999999,503.4299999999999H234.83C234.4,505.0899999999999,231.75,516.8899999999999,231.75,557.2999999999998C231.75,585.8099999999998,234.88,605.6799999999998,235.35,608.5199999999999Z" transform="matrix(1,0,0,1,-175.58,-476.64)" style="-webkit-tap-highlight-color: rgba(0, 0, 0, 0);"></path><path fill="#ffffff" stroke="#000000" d="M463.15,501H534C532.86,499.36,531.46,498,530.29,496.34H530.29L525.42,489.67999999999995C525.29,489.49999999999994,525.11,489.10999999999996,524.92,488.99999999999994A6.22,6.22,0,0,0,523.0799999999999,488.80999999999995C522.54,488.73999999999995,522.0099999999999,488.63999999999993,521.4799999999999,488.5199999999999C519.1299999999999,487.9799999999999,516.8799999999999,487.0899999999999,514.5299999999999,486.5199999999999S509.52999999999986,486.23999999999995,507.0699999999999,486.23999999999995L499.45999999999987,486.23999999999995C489.96999999999986,486.23999999999995,490.45999999999987,486.15,480.9999999999999,486.15C477.89999999999986,486.15,476.8899999999999,486.52,473.3699999999999,487.4L459.17,497A4.83,4.83,0,0,1,463.15,501Z" transform="matrix(1,0,0,1,-175.58,-476.64)" style="-webkit-tap-highlight-color: rgba(0, 0, 0, 0);"></path><path fill="#ffffff" stroke="#000000" d="M531.86,502H463.4C464.21,505.5,464.90999999999997,509,465.53,512.55Q467.2,522.0699999999999,468.19,531.6999999999999C468.89,538.3599999999999,469.37,545.03,469.61,551.6999999999999H469.75V560.2399999999999H469.61Q469.41,565.9099999999999,468.98,571.5799999999999Q468.26,581.2099999999999,466.89000000000004,590.79C465.97,597.2199999999999,464.89000000000004,603.63,463.40000000000003,609.9699999999999H531.84C533.1600000000001,607.1299999999999,541.99,586.9699999999999,541.99,555.9699999999999C541.99,525.17,533.27,504.9699999999999,531.86,501.9699999999999Z" transform="matrix(1,0,0,1,-175.58,-476.64)" style="-webkit-tap-highlight-color: rgba(0, 0, 0, 0);"></path><path fill="#ffffff" stroke="#000000" d="M343.55,603Q332.46000000000004,603.74,321.41,605Q318.20000000000005,605.36,314.99,605.77L313.32,605.99A3.59,3.59,0,0,0,312.01,606.62A9.74,9.74,0,0,1,309.62,607.44C309.15,607.5600000000001,307.67,607.6800000000001,307.4,608.0200000000001A6.18,6.18,0,0,0,306.98999999999995,609.6400000000001A29.58,29.58,0,0,1,306.2699999999999,612.8800000000001C305.13999999999993,616.94,304.19999999999993,620.2000000000002,302.7299999999999,625.19C307.3599999999999,625.19,314.9999999999999,625.4200000000001,319.5799999999999,624.7C323.7699999999999,624.0400000000001,328.0399999999999,622.85,332.30999999999995,622.85C348.1499999999999,622.85,363.59999999999997,622.9300000000001,378.94999999999993,623.03L378.46,602C366.82,601.87,355.17,602.27,343.55,603ZM376.47,617.32L362.76000000000005,617.2700000000001L338.76000000000005,617.1800000000001L314.76000000000005,617.09L314.90000000000003,615.6L315.08000000000004,613.6C315.14000000000004,612.99,315.02000000000004,612.85,315.54,612.6A20.19,20.19,0,0,1,317.54,611.88Q320.39000000000004,610.88,323.32,610.1A101.76,101.76,0,0,1,336.02,607.57C340.15,607.0100000000001,344.29999999999995,606.6800000000001,348.46,606.46S356.66999999999996,606.1800000000001,360.77,606.1600000000001C365.03,606.1600000000001,369.28999999999996,606.1600000000001,373.54999999999995,606.1600000000001L376.54999999999995,606.1600000000001Z" transform="matrix(1,0,0,1,-175.58,-476.64)" style="-webkit-tap-highlight-color: rgba(0, 0, 0, 0);"></path><path fill="#ffffff" stroke="#000000" d="M529.71,616.55C531.09,614.66,532.71,612.9699999999999,534.0400000000001,611.04H463.15A4.83,4.83,0,0,1,459.15,615.04L471.15,623.91C475.51,624.65,477.73999999999995,625.91,482.15,625.91C495.63,625.91,499.09999999999997,625.8,512.5699999999999,625.8A15.8,15.8,0,0,0,517.01,624.8C518.66,624.3,520.3,623.8,522.01,623.41C522.86,623.24,524.41,623.41,525.01,622.88A8.83,8.83,0,0,0,526.2,621.25Z" transform="matrix(1,0,0,1,-175.58,-476.64)" style="-webkit-tap-highlight-color: rgba(0, 0, 0, 0);"></path><path fill="#ffffff" stroke="#000000" d="M307.27,503.44C307.34,504.16,307.49,504.03,308.27,504.21999999999997S309.97999999999996,504.60999999999996,310.81,504.86999999999995A23.8,23.8,0,0,1,312.93,505.98999999999995A14.38,14.38,0,0,0,316.28000000000003,506.42999999999995Q319.91,506.88999999999993,323.54,507.2699999999999A474,474,0,0,0,378.54,510.05999999999995L379.02000000000004,488.96999999999997C363.67,489.07,348.22,489.15,332.38000000000005,489.15C328.11000000000007,489.15,323.8500000000001,487.96,319.65000000000003,487.29999999999995C315.06000000000006,486.5799999999999,308.42,486.80999999999995,303.79,486.80999999999995C304.79,491.41999999999996,305.91,496.19999999999993,306.74,500.42999999999995C306.83,501.25,307.19,502.6,307.27,503.44ZM328.38,494.83L352.38,494.74L376.49,494.65000000000003V505.82000000000005H374.73C370.52000000000004,505.82000000000005,366.3,505.82000000000005,362.09000000000003,505.82000000000005S353.43,505.74000000000007,349.09000000000003,505.5400000000001S340.47,505.00000000000006,336.19000000000005,504.43000000000006A102.6,102.6,0,0,1,323.50000000000006,501.93000000000006C321.50000000000006,501.4000000000001,319.50000000000006,500.7800000000001,317.50000000000006,500.1000000000001L315.50000000000006,499.4000000000001C314.90000000000003,499.18000000000006,315.03000000000003,499.0300000000001,314.9700000000001,498.4000000000001L314.7900000000001,496.4000000000001C314.7900000000001,495.9200000000001,314.7000000000001,495.4000000000001,314.6500000000001,494.9500000000001Z" transform="matrix(1,0,0,1,-175.58,-476.64)" style="-webkit-tap-highlight-color: rgba(0, 0, 0, 0);"></path><path fill="#ffffff" stroke="#000000" d="M306.19,503.72L302.61,486.8H294.85L298.07000000000005,501.93C300.78,502.52,303.49,503.1,306.19,503.72Z" transform="matrix(1,0,0,1,-175.58,-476.64)" style="-webkit-tap-highlight-color: rgba(0, 0, 0, 0);"></path><path fill="#ffffff" stroke="#000000" d="M268.59,502.63H279.5C279.72,502.63,280.35,502.75,280.55,502.63S281.03000000000003,501.63,281.19,501.4A5.23,5.23,0,0,1,282.34,500.13A4.62,4.62,0,0,1,285.59,499.2A50.37,50.37,0,0,1,292.44,500.71999999999997L296.87,501.71999999999997L293.7,486.84H285.13C281.38,486.84,277.58,486.65,273.85,486.97999999999996C267.41,487.54999999999995,261.07000000000005,488.97999999999996,254.62000000000003,489.46C250.99000000000004,489.71,247.38000000000002,490.10999999999996,243.77000000000004,490.46C242.03000000000003,490.63,240.29000000000005,490.78999999999996,238.55000000000004,490.91999999999996L237.20000000000005,491.00999999999993A5.18,5.18,0,0,0,236.04000000000005,491.0799999999999C235.99000000000004,491.0799999999999,235.98000000000005,491.29999999999995,235.95000000000005,491.3499999999999A8.74,8.74,0,0,0,235.36000000000004,493.13999999999993L234.58000000000004,495.50999999999993L233.50000000000003,498.8299999999999H233.50000000000003A21.6,21.6,0,0,1,232.68000000000004,502.6599999999999H268.61Z" transform="matrix(1,0,0,1,-175.58,-476.64)" style="-webkit-tap-highlight-color: rgba(0, 0, 0, 0);"></path><path fill="#ffffff" stroke="#000000" d="M290.84,611.66C288.71999999999997,612.14,286.13,613.26,283.95,612.66A4.77,4.77,0,0,1,281.21,610.5899999999999C281.04999999999995,610.3499999999999,280.78,609.4799999999999,280.57,609.3599999999999S280.33,609.3599999999999,280.25,609.3599999999999A10.83,10.83,0,0,0,278.43,609.3599999999999H232.67A21.33,21.33,0,0,1,233.48999999999998,613.2199999999999H233.48999999999998L234.57,616.5099999999999L235.38,618.9899999999999A7.76,7.76,0,0,0,235.94,620.6899999999999C235.94,620.7499999999999,235.94,620.89,236.02,620.9399999999999S237.29000000000002,621.01,237.57000000000002,621.03L238.73000000000002,621.11C240.54000000000002,621.25,242.35000000000002,621.42,244.15,621.6C247.64000000000001,621.95,251.15,622.33,254.62,622.6S261.62,623.45,265.02,623.95C268.28,624.4200000000001,271.56,624.95,274.84999999999997,625.1600000000001C278.71,625.4100000000001,279.62999999999994,625.22,283.49999999999994,625.22H292.75999999999993L296.80999999999995,610.36C294.84,610.77,292.83,611.2,290.84,611.66Z" transform="matrix(1,0,0,1,-175.58,-476.64)" style="-webkit-tap-highlight-color: rgba(0, 0, 0, 0);"></path><path fill="#ffffff" stroke="#000000" d="M304.61,608.65C302.43,609.15,300.24,609.65,298.05,610.0799999999999L293.93,625.2099999999999H301.62L306.2,608.29Z" transform="matrix(1,0,0,1,-175.58,-476.64)" style="-webkit-tap-highlight-color: rgba(0, 0, 0, 0);"></path><path fill="#ffffff" stroke="#000000" d="M418.79,507.14A12.63,12.63,0,0,0,421.79,506.58C422.51000000000005,506.27,423.18,505.93,423.92,505.68C425.63,505.1,427.35,504.58,429.09000000000003,504.09000000000003C432.3,503.19000000000005,435.56000000000006,502.44000000000005,438.82000000000005,501.73C441.6700000000001,501.11,444.52000000000004,500.51,447.37000000000006,499.86L459.4800000000001,488.26C454.4800000000001,488.46,449.61000000000007,488.59999999999997,447.93000000000006,488.59999999999997L437.31000000000006,488.59999999999997C437.7800000000001,490.16999999999996,438.9100000000001,492.21,437.69000000000005,493.68999999999994A22.77,22.77,0,0,1,443.24000000000007,493.84999999999997C444.19000000000005,494.08,445.08000000000004,494.78999999999996,444.6500000000001,495.84999999999997A3.27,3.27,0,0,1,442.9600000000001,497.28999999999996A21,21,0,0,1,438.3200000000001,498.86999999999995C433.6400000000001,499.97999999999996,428.9700000000001,501.13999999999993,424.2700000000001,502.15999999999997A140,140,0,0,1,402.8200000000001,505.07C395.7500000000001,505.48,388.6800000000001,505.63,381.60000000000014,505.7Q382.01000000000016,500.03999999999996,382.4400000000001,494.38L431.1400000000001,493.76C429.8200000000001,493.48,428.3200000000001,493.31,427.4700000000001,492.12C426.7700000000001,491.12,426.9800000000001,489.77,426.9700000000001,488.63C411.2200000000001,488.7,395.7000000000001,488.82,380.0900000000001,488.92L379.61000000000007,510.01A297.6,297.6,0,0,0,414.93000000000006,507.65999999999997Q416.84,507.44,418.79,507.14Z" transform="matrix(1,0,0,1,-175.58,-476.64)" style="-webkit-tap-highlight-color: rgba(0, 0, 0, 0);"></path><path fill="#ffffff" stroke="#000000" d="M453.41,498.36C454.96000000000004,497.93,455.5,497.36,457.08000000000004,497L471.31000000000006,487.55C469.80000000000007,487.77000000000004,465.6000000000001,488.01,461.12000000000006,488.2L449.46000000000004,499.36C450.78,499,452.1,498.72,453.41,498.36Z" transform="matrix(1,0,0,1,-175.58,-476.64)" style="-webkit-tap-highlight-color: rgba(0, 0, 0, 0);"></path><path fill="#ffffff" stroke="#000000" d="M452.74,613.47C451.65000000000003,613.1800000000001,450.56,612.9100000000001,449.47,612.64L460.79,623.48C464.43,623.54,468.35,623.62,469.07,623.73L457.07,615.01C455.28,614.62,454.52,613.94,452.74,613.47Z" transform="matrix(1,0,0,1,-175.58,-476.64)" style="-webkit-tap-highlight-color: rgba(0, 0, 0, 0);"></path><path fill="#ffffff" stroke="#000000" d="M447.31,612.13C440.86,610.66,434.31,609.45,427.98,607.61C426.33000000000004,607.13,424.66,606.61,423.06,606.03C422.63,605.86,422.22,605.62,421.79,605.4499999999999A14.33,14.33,0,0,0,418.68,604.89Q414.84000000000003,604.31,410.99,603.89A308.29,308.29,0,0,0,379.56,602L380,623C395.6,623.1,411.11,623.22,426.84000000000003,623.29C426.84000000000003,622.0899999999999,426.64000000000004,620.73,427.47,619.73C428.47,618.58,430.07000000000005,618.45,431.47,618.16L382.40000000000003,617.54Q381.97,611.88,381.56000000000006,606.2199999999999C385.56000000000006,606.2199999999999,389.63000000000005,606.3199999999999,393.6700000000001,606.4499999999999Q398.86000000000007,606.6099999999999,404.0400000000001,606.93A145.34,145.34,0,0,1,427.61000000000007,610.51C431.61000000000007,611.43,435.6700000000001,612.26,439.61000000000007,613.38A13.64,13.64,0,0,1,443.7800000000001,615.12A1.66,1.66,0,0,1,444.61000000000007,617.12C444.2800000000001,617.9,443.3500000000001,618.12,442.61000000000007,618.2A36.33,36.33,0,0,1,437.55000000000007,618.26C438.9000000000001,619.6899999999999,437.76000000000005,621.77,437.2900000000001,623.35L454.2900000000001,623.35L459.2200000000001,623.4L447.4000000000001,612.0799999999999Z" transform="matrix(1,0,0,1,-175.58,-476.64)" style="-webkit-tap-highlight-color: rgba(0, 0, 0, 0);"></path></svg>