<svg xmlns="http://www.w3.org/2000/svg" width="48" height="46" viewBox="0 0 48 46">
  <g id="Group_17684" data-name="Group 17684" transform="translate(-3 -27.05)">
    <g id="_360_" data-name="360ยบ" transform="translate(2.531 26.643)">
      <g id="Mask_Copy" data-name="Mask Copy" transform="translate(0 0)">
        <rect id="Mask_Copy-2" data-name="Mask Copy" width="48" height="46" rx="23" transform="translate(0.469 0.406)" fill="#fff"/>
        <rect id="Mask_Copy-3" data-name="Mask Copy" width="48" height="46" rx="23" transform="translate(0.469 0.406)" fill="none"/>
      </g>
    </g>
    <path id="_283_Reviews" data-name="283 Reviews" d="M19.72-18.99a5.768,5.768,0,0,1,1.835,2.732,6.215,6.215,0,0,1,.149,3.265,5.664,5.664,0,0,1-1.558,2.839L11.909-1.617a1.35,1.35,0,0,1-.982.427,1.35,1.35,0,0,1-.982-.427L1.707-10.111A5.915,5.915,0,0,1,.149-12.993,6.215,6.215,0,0,1,.3-16.258,5.768,5.768,0,0,1,2.134-18.99a5.4,5.4,0,0,1,2.6-1.238,5.749,5.749,0,0,1,2.86.213,6.05,6.05,0,0,1,2.476,1.579l.854.854.854-.854a6.05,6.05,0,0,1,2.476-1.579,5.749,5.749,0,0,1,2.86-.213A5.4,5.4,0,0,1,19.72-18.99Z" transform="translate(15.736 61.171)" fill="rgba(255,176,91,0.24)" stroke="#ffb05b" stroke-width="2"/>
  </g>
</svg>
