<svg xmlns="http://www.w3.org/2000/svg" xmlns:xlink="http://www.w3.org/1999/xlink" width="36" height="36" viewBox="0 0 36 36">
  <defs>
    <linearGradient id="linear-gradient" x1="0.5" x2="0.5" y2="1" gradientUnits="objectBoundingBox">
      <stop offset="0" stop-color="#ffb05b"/>
      <stop offset="1" stop-color="#ff8b52"/>
    </linearGradient>
  </defs>
  <g id="Group_17645" data-name="Group 17645" transform="translate(-301 -110)">
    <g id="Group_16987" data-name="Group 16987" transform="translate(301 110)">
      <rect id="Colour_BG" data-name="Colour BG" width="36" height="36" rx="18" fill="url(#linear-gradient)"/>
    </g>
    <path id="Path_20908" data-name="Path 20908" d="M14.737-16.625a.7.7,0,0,1,.513.211.7.7,0,0,1,.211.513.7.7,0,0,1-.211.513L9.663-9.8v7.912a.673.673,0,0,1-.393.649.707.707,0,0,1-.755-.045L6.1-2.976a.744.744,0,0,1-.3-.6V-9.8L.211-15.387A.7.7,0,0,1,0-15.9a.7.7,0,0,1,.211-.513.7.7,0,0,1,.513-.211Z" transform="translate(311 137.625)" fill="#fff"/>
  </g>
</svg>
