<svg xmlns="http://www.w3.org/2000/svg" xmlns:xlink="http://www.w3.org/1999/xlink" width="48" height="46" viewBox="0 0 48 46">
  <defs>
    <linearGradient id="linear-gradient" x1="0.5" x2="0.5" y2="1" gradientUnits="objectBoundingBox">
      <stop offset="0" stop-color="#45496b"/>
      <stop offset="1" stop-color="#282a3b"/>
    </linearGradient>
  </defs>
  <g id="Group_17683" data-name="Group 17683" transform="translate(-3.058 -27.05)">
    <g id="_360_" data-name="360ยบ" transform="translate(2.876 26.643)">
      <g id="Mask_Copy" data-name="Mask Copy" transform="translate(0 0)">
        <rect id="Mask_Copy-2" data-name="Mask Copy" width="48" height="46" rx="23" transform="translate(0.182 0.406)" fill="#fff"/>
        <rect id="Mask_Copy-3" data-name="Mask Copy" width="48" height="46" rx="23" transform="translate(0.182 0.406)" fill="none"/>
      </g>
    </g>
  </g>
  <g id="Group_17668" data-name="Group 17668" transform="translate(12.476 12.252)">
    <path id="_283_Reviews" data-name="283 Reviews" d="M20.672-10.582A.936.936,0,0,1,21-9.844a.936.936,0,0,1-.328.738L13.453-2.871a.912.912,0,0,1-.718.246,1.056,1.056,0,0,1-.656-.308.917.917,0,0,1-.267-.677V-7.219a15.987,15.987,0,0,0-5.127.7,3.707,3.707,0,0,0-2.5,2.358A7.912,7.912,0,0,0,4.553.41a.569.569,0,0,1-.062.574A.787.787,0,0,1,4,1.292.741.741,0,0,1,3.4,1.148,8.184,8.184,0,0,1,1.025-1.559,7.251,7.251,0,0,1,0-5.168a6.341,6.341,0,0,1,3.445-6.111q2.748-1.436,8.367-1.518v-3.281a.917.917,0,0,1,.267-.677,1.056,1.056,0,0,1,.656-.308.912.912,0,0,1,.718.246Z" transform="translate(-0.476 18.748)" fill="url(#linear-gradient)"/>
  </g>
</svg>
